<?xml version="1.0" encoding="iso-8859-1"?>
<!-- Generator: Adobe Illustrator 19.0.0, SVG Export Plug-In . SVG Version: 6.00 Build 0)  -->
<svg version="1.1" id="Capa_1" xmlns="http://www.w3.org/2000/svg" xmlns:xlink="http://www.w3.org/1999/xlink" x="0px" y="0px"
	 viewBox="0 0 511.999 511.999" style="enable-background:new 0 0 511.999 511.999;" xml:space="preserve">
<path id="SVGCleanerId_0" style="fill:#FFB655;" d="M231.597,329.028c1.479-0.004,2.947,0.03,4.409,0.094v-34.933
	c-1.813-0.084-3.635-0.142-5.466-0.152c-58.124-0.331-105.379-47.411-105.996-105.468c-0.632-59.527,48.31-107.769,107.84-107.769
	h6.118c9.662,0,17.495-7.833,17.495-17.495s-7.833-17.495-17.495-17.495h-5.793c-78.942,0-143.835,63.908-143.156,142.847
	C90.22,266.319,153.725,329.266,231.597,329.028z"/>
<g>
	<path id="SVGCleanerId_0_1_" style="fill:#FFB655;" d="M231.597,329.028c1.479-0.004,2.947,0.03,4.409,0.094v-34.933
		c-1.813-0.084-3.635-0.142-5.466-0.152c-58.124-0.331-105.379-47.411-105.996-105.468c-0.632-59.527,48.31-107.769,107.84-107.769
		h6.118c9.662,0,17.495-7.833,17.495-17.495s-7.833-17.495-17.495-17.495h-5.793c-78.942,0-143.835,63.908-143.156,142.847
		C90.22,266.319,153.725,329.266,231.597,329.028z"/>
</g>
<path style="fill:#C6C5CA;" d="M440.955,234.818l-56.992,76.908l36.536,0.1c-5.392,72.527-57.887,132.149-126.917,148.294
	c-7.228-5.739-10.36-8.227-17.588-13.965V191.423h61.605c9.647-8.605,15.057-13.429,24.704-22.034v-26.952h-86.309v-27.107
	c20.9-8.039,35.74-28.293,35.74-52.024c0-30.781-24.953-55.734-55.734-55.734c-25.869,0-47.615,17.626-53.899,41.521
	c9.875-2.143,20.115-3.282,30.607-3.282h5.793c1.371,0,2.698,0.174,3.978,0.472c3.712-2.952,8.409-4.721,13.52-4.721
	c12.009,0,21.744,9.735,21.744,21.744s-9.735,21.744-21.744,21.744c-5.112,0-9.807-1.769-13.52-4.721
	c-1.28,0.298-2.607,0.472-3.978,0.472h-6.118c-9.654,0-19.027,1.276-27.958,3.656c5.811,14.146,17.274,25.372,31.58,30.873v27.107
	h-86.309v26.952c9.647,8.605,15.057,13.429,24.704,22.034h61.605v254.734c-7.228,5.739-10.36,8.226-17.588,13.965
	C149.386,443.975,96.893,384.354,91.5,311.828l36.536-0.1l-56.992-76.908l-56.268,76.908h36.646
	c6.357,107.329,95.68,192.702,204.577,192.702s198.22-85.374,204.577-192.702h36.646L440.955,234.818z"/>
<path style="fill:#FFB655;" d="M275.994,302.363v37.809c29.478,15.943,49.486,47.328,49.486,83.179v25.725
	c12.606-5.878,24.352-13.301,34.99-22.03v-3.855C360.47,367.7,325.212,320.764,275.994,302.363z"/>
<path style="fill:#FF7956;" d="M109.547,188.656c-0.649-75.393,58.515-137.068,132.605-142.46c-1.178-0.25-2.398-0.388-3.651-0.388
	h-5.793c-78.942,0-143.835,63.908-143.156,142.847c0.668,77.663,64.173,140.61,142.045,140.371c1.479-0.004,2.947,0.03,4.409,0.094
	v-0.908C165.419,320.674,110.169,261.066,109.547,188.656z"/>
<g>
	<path style="fill:#898890;" d="M242.48,80.327c-1.28,0.298-2.607,0.472-3.978,0.472h-6.118c-9.654,0-19.027,1.276-27.958,3.656
		c5.811,14.146,17.274,25.372,31.58,30.873v27.107H256v-27.107c-14.305-5.501-25.768-16.728-31.58-30.873
		c6.205-1.654,12.627-2.76,19.206-3.29C243.237,80.895,242.85,80.622,242.48,80.327z"/>
	<path style="fill:#898890;" d="M308.304,455.935c1.559,1.238,3.253,2.583,5.272,4.187
		c69.031-16.146,121.525-75.768,126.917-148.294l-36.536-0.1l46.931-63.331l-9.933-13.577l-56.992,76.908l36.536,0.1
		C415.497,379.103,369.965,435.266,308.304,455.935z"/>
	<path style="fill:#898890;" d="M266.014,82.604c2.991,1.552,6.378,2.445,9.98,2.445c12.009,0,21.744-9.735,21.744-21.744
		s-9.735-21.744-21.744-21.744c-3.602,0-6.989,0.893-9.98,2.445c6.968,3.623,11.73,10.903,11.73,19.299
		S272.982,78.98,266.014,82.604z"/>
	<path style="fill:#898890;" d="M238.411,460.122c7.228-5.739,10.36-8.227,17.588-13.965V191.423h-19.994v254.734
		c-5.209,4.136-8.296,6.587-12.316,9.778C228.504,457.548,233.413,458.952,238.411,460.122z"/>
	<path style="fill:#898890;" d="M242.627,46.174c-0.168,0.012-0.337,0.022-0.505,0.034c0.119,0.025,0.239,0.046,0.357,0.073
		C242.527,46.243,242.579,46.211,242.627,46.174z"/>
	<polygon style="fill:#898890;" points="71.044,234.818 14.777,311.727 34.771,311.727 81.105,248.396 	"/>
	<path style="fill:#898890;" d="M71.417,311.727H51.422c6.357,107.329,95.68,192.702,204.577,192.702
		c3.352,0,6.684-0.083,9.997-0.243C161.677,499.152,77.578,415.752,71.417,311.727z"/>
	<path style="fill:#898890;" d="M194.395,191.423c-9.647-8.605-15.057-13.429-24.704-22.034v-26.952h-19.994v26.952
		c9.647,8.605,15.057,13.429,24.704,22.034L194.395,191.423L194.395,191.423z"/>
	<path style="fill:#898890;" d="M265.974,8.478C262.736,7.893,259.407,7.57,256,7.57c-25.869,0-47.615,17.626-53.899,41.521
		c6.794-1.475,13.764-2.461,20.867-2.941C229.205,26.856,245.667,12.167,265.974,8.478z"/>
</g>
<path style="fill:#FF7956;" d="M345.474,437.982v-14.63c0-35.852-20.008-67.237-49.486-83.179v-28.314
	c-6.349-3.693-13.025-6.889-19.994-9.495v37.809c29.478,15.943,49.486,47.328,49.486,83.179v25.725
	C332.424,445.839,339.094,442.117,345.474,437.982z"/>
<g>
	<path style="fill:#1D1D1F;" d="M440.994,222.173l-71.889,97.011l43.106,0.119c-8.061,63.181-54.917,116.634-116.849,132.659
		l-11.871-9.426V198.921h56.964l29.345-26.173v-37.809h-86.309v-14.697c21.573-10.46,35.74-32.719,35.74-56.938
		c0-34.866-28.366-63.232-63.232-63.232c-18.387,0-35.831,7.987-47.859,21.912l11.349,9.803
		c9.178-10.625,22.486-16.719,36.511-16.719c26.597,0,48.236,21.639,48.236,48.236c0,19.815-12.431,37.91-30.933,45.026
		l-4.807,1.848v24.759h-9.497v14.996h95.806v16.095l-20.063,17.895h-66.245v173.047h-16.495v14.996h16.495v77.81l23.263,18.472
		l3.53-0.826c35.639-8.336,67.208-27.495,91.292-55.406c24.331-28.197,38.645-62.649,41.394-99.633l0.597-8.032l-29.752-0.082
		l42.094-56.806l41.531,56.765h-28.937l-0.418,7.055c-6.166,104.102-92.74,185.648-197.092,185.648S65.074,415.385,58.907,311.284
		l-0.418-7.055H29.553l41.531-56.765l42.094,56.806l-29.754,0.082l0.598,8.032c2.75,36.984,17.064,71.436,41.395,99.633
		c24.085,27.911,55.653,47.071,91.291,55.406l3.53,0.826l23.264-18.472V183.925h-66.245l-20.063-17.895v-16.095h86.309v-24.647
		c4.091,0.821,8.266,1.249,12.496,1.249V111.54c-5.75,0-11.362-1.008-16.694-2.976l-0.608-0.234
		c-6.406-2.463-12.344-6.372-17.17-11.303l-10.716,10.489c5.097,5.208,11.143,9.545,17.696,12.723v14.698h-81.214
		c3.79-5.953,8.247-11.556,13.344-16.707c19.099-19.304,44.579-29.934,71.746-29.934h6.118c0.745,0,1.481-0.039,2.208-0.103
		c4.581,2.81,9.888,4.352,15.29,4.352c16.124,0,29.242-13.118,29.242-29.242s-13.117-29.242-29.242-29.242
		c-5.401,0-10.709,1.542-15.29,4.352c-0.729-0.064-1.464-0.103-2.208-0.103h-5.793c-40.692,0-78.876,15.908-107.516,44.796
		c-28.16,28.403-43.48,65.91-43.138,105.613c0.315,36.717,14.148,71.909,38.951,99.094c24.636,27.001,58.093,43.997,94.208,47.855
		l1.594-14.911c-67.688-7.231-119.172-64.05-119.757-132.168c-0.043-4.956,0.196-9.872,0.691-14.735h13.633v-14.996h-11.243
		c3.47-15.811,9.819-30.819,18.795-44.405l10.17,7.05l8.543-12.325l-9.75-6.758c2.511-3.011,5.159-5.936,7.955-8.758
		c5.007-5.05,10.34-9.653,15.947-13.803l5.182,9.327l13.109-7.282l-5.726-10.307c20.536-11.93,43.941-18.293,68.354-18.293h5.793
		c5.512,0,9.997,4.485,9.997,9.997c0,5.512-4.485,9.997-9.997,9.997h-6.118c-31.202,0-60.467,12.211-82.406,34.382
		c-21.559,21.79-33.256,50.544-32.933,80.964c0.238,22.347,7.156,44.224,19.634,62.668l-6.756,5.27l9.222,11.824l6.727-5.247
		c5.127,5.76,10.821,10.955,16.948,15.545l-5.362,9.093l12.916,7.617l5.015-8.504c7.551,4.249,15.573,7.648,23.904,10.082
		l-2.52,9.375l14.482,3.893l6.534-24.312l-7.693-1.671c-44.742-9.718-77.57-50.005-78.056-95.793
		c-0.167-15.675,3.351-30.843,10.158-44.542v28.801l29.345,26.173h56.964v243.615l-11.872,9.426
		c-61.93-16.026-108.786-69.479-116.849-132.659l43.107-0.119l-71.889-97.011L0,319.225h44.471
		c10.042,108.616,101.62,192.702,211.528,192.702s201.486-84.086,211.528-192.702h44.471L440.994,222.173z M270.245,63.304
		c0,6.719-4.681,12.352-10.949,13.845c2.649-3.966,4.198-8.728,4.198-13.845s-1.549-9.879-4.198-13.845
		C265.565,50.953,270.245,56.586,270.245,63.304z"/>
	<rect x="248.5" y="416.582" style="fill:#1D1D1F;" width="14.996" height="14.996"/>
	<rect x="248.5" y="466.568" style="fill:#1D1D1F;" width="14.996" height="14.996"/>
	<rect x="248.5" y="441.575" style="fill:#1D1D1F;" width="14.996" height="14.996"/>
</g>
<g>
	<rect x="294.986" y="158.865" style="fill:#FFFFFF;" width="14.996" height="14.996"/>
	<rect x="319.979" y="158.865" style="fill:#FFFFFF;" width="14.996" height="14.996"/>
	<rect x="177.02" y="158.865" style="fill:#FFFFFF;" width="107.969" height="14.996"/>
	<path style="fill:#FFFFFF;" d="M426.565,349.047l14.428,4.092c1.416-4.994,2.642-10.099,3.644-15.178l-14.713-2.902
		C429,339.738,427.87,344.444,426.565,349.047z"/>
	<path style="fill:#FFFFFF;" d="M368.744,437.387l9.552,11.56c27.463-22.696,48.065-52.391,59.581-85.878l-14.182-4.877
		C413.078,389.067,394.076,416.451,368.744,437.387z"/>
	<path style="fill:#FFFFFF;" d="M447.924,312.17l-14.971-0.886c-0.282,4.783-0.765,9.601-1.432,14.32l14.848,2.099
		C447.094,322.584,447.616,317.357,447.924,312.17z"/>
</g>
<g>
	<path style="fill:#1D1D1F;" d="M87.865,356.916l-14.219,4.768c11.422,34.06,32.186,64.236,60.051,87.264l9.552-11.56
		C117.546,416.145,98.394,388.319,87.865,356.916z"/>
	<path style="fill:#1D1D1F;" d="M366.013,400.245c-6.785-39.744-30.933-74.322-66.254-94.868l-7.541,12.962
		c31.47,18.305,52.978,49.078,59.013,84.429L366.013,400.245z"/>
	<rect x="248.5" y="205.682" style="fill:#1D1D1F;" width="14.996" height="100.641"/>
	<path style="fill:#1D1D1F;" d="M338.216,395.06l-8.849,1.509c-1.67-6.114-3.899-12.063-6.657-17.761l8.492-4.571l-7.107-13.204
		l-8.892,4.786c-2.765-4.069-5.83-7.947-9.177-11.596l6.604-6.604l-10.604-10.603l-11.878,11.878l5.821,5.821l-5.143,5.417
		c17.259,16.383,27.156,39.427,27.156,63.221v3.236h14.996v-3.236c0-4.047-0.252-8.074-0.731-12.063l8.488-1.447L338.216,395.06z"/>
</g>
<g>
</g>
<g>
</g>
<g>
</g>
<g>
</g>
<g>
</g>
<g>
</g>
<g>
</g>
<g>
</g>
<g>
</g>
<g>
</g>
<g>
</g>
<g>
</g>
<g>
</g>
<g>
</g>
<g>
</g>
</svg>
